<svg width="16" height="13" viewBox="0 0 16 13" fill="none" xmlns="http://www.w3.org/2000/svg">
<path id="Vector" d="M14.8781 6.80975C16.374 5.31392 16.374 2.89149 14.8781 1.39566C13.5544 0.0719279 11.4682 -0.100158 9.94589 0.987953L9.90353 1.01708C9.5223 1.28977 9.43493 1.81926 9.70762 2.19785C9.98031 2.57644 10.5098 2.66645 10.8884 2.39376L10.9308 2.36464C11.7806 1.75837 12.9428 1.85368 13.6788 2.59232C14.5128 3.42628 14.5128 4.77649 13.6788 5.61044L10.7084 8.5862C9.87441 9.42015 8.5242 9.42015 7.69025 8.5862C6.9516 7.84755 6.85629 6.68531 7.46256 5.83812L7.49168 5.79576C7.76437 5.41453 7.67436 4.88503 7.29577 4.61499C6.91718 4.34495 6.38504 4.43232 6.115 4.8109L6.08588 4.85326C4.99512 6.37291 5.1672 8.45912 6.49094 9.78286C7.98676 11.2787 10.4092 11.2787 11.905 9.78286L14.8781 6.80975ZM1.12187 6.19024C-0.373955 7.68606 -0.373955 10.1085 1.12187 11.6043C2.4456 12.9281 4.53181 13.1001 6.05411 12.012L6.09647 11.9829C6.4777 11.7102 6.56507 11.1807 6.29238 10.8021C6.01969 10.4235 5.4902 10.3335 5.11161 10.6062L5.06925 10.6353C4.21941 11.2416 3.05717 11.1463 2.32117 10.4077C1.48722 9.57106 1.48722 8.22085 2.32117 7.38689L5.29164 4.41378C6.12559 3.57983 7.4758 3.57983 8.30975 4.41378C9.0484 5.15243 9.14371 6.31467 8.53744 7.16451L8.50831 7.20687C8.23563 7.5881 8.32564 8.1176 8.70423 8.38764C9.08282 8.65768 9.61496 8.57031 9.885 8.19173L9.91412 8.14937C11.0049 6.62707 10.8328 4.54086 9.50906 3.21713C8.01324 1.7213 5.5908 1.7213 4.09498 3.21713L1.12187 6.19024Z" fill="#3287FF"/>
</svg>
